<svg id="ewSkQ7vCg8n1" xmlns="http://www.w3.org/2000/svg" xmlns:xlink="http://www.w3.org/1999/xlink" viewBox="0 0 500 500" shape-rendering="geometricPrecision" text-rendering="geometricPrecision"><defs><filter id="ewSkQ7vCg8n2-filter" x="-150%" width="400%" y="-150%" height="400%"><feGaussianBlur id="ewSkQ7vCg8n2-filter-blur-0" stdDeviation="10,10" result="result"/></filter><linearGradient id="ewSkQ7vCg8n3-fill" x1="0" y1="0.5" x2="1" y2="0.5" spreadMethod="pad" gradientUnits="objectBoundingBox" gradientTransform="translate(0 0)"><stop id="ewSkQ7vCg8n3-fill-0" offset="0%" stop-color="#ffde59"/><stop id="ewSkQ7vCg8n3-fill-1" offset="100%" stop-color="#ff914d"/></linearGradient><linearGradient id="ewSkQ7vCg8n4-fill" x1="0" y1="0.5" x2="1" y2="0.5" spreadMethod="pad" gradientUnits="objectBoundingBox" gradientTransform="translate(0 0)"><stop id="ewSkQ7vCg8n4-fill-0" offset="0%" stop-color="#ffde59"/><stop id="ewSkQ7vCg8n4-fill-1" offset="0%" stop-color="#8c52ff"/><stop id="ewSkQ7vCg8n4-fill-2" offset="100%" stop-color="#ff914d"/></linearGradient><linearGradient id="ewSkQ7vCg8n5-fill" x1="0" y1="0.5" x2="1" y2="0.5" spreadMethod="pad" gradientUnits="objectBoundingBox" gradientTransform="translate(0 0)"><stop id="ewSkQ7vCg8n5-fill-0" offset="0%" stop-color="#004aad"/><stop id="ewSkQ7vCg8n5-fill-1" offset="100%" stop-color="#cb6ce6"/></linearGradient><linearGradient id="ewSkQ7vCg8n7-fill" x1="0" y1="0.5" x2="1" y2="0.5" spreadMethod="pad" gradientUnits="objectBoundingBox" gradientTransform="translate(0 0)"><stop id="ewSkQ7vCg8n7-fill-0" offset="0%" stop-color="#ffde59"/><stop id="ewSkQ7vCg8n7-fill-1" offset="100%" stop-color="#ff914d"/></linearGradient><linearGradient id="ewSkQ7vCg8n8-fill" x1="0" y1="0.5" x2="1" y2="0.5" spreadMethod="pad" gradientUnits="objectBoundingBox" gradientTransform="translate(0 0)"><stop id="ewSkQ7vCg8n8-fill-0" offset="0%" stop-color="#ffde59"/><stop id="ewSkQ7vCg8n8-fill-1" offset="0%" stop-color="#8c52ff"/><stop id="ewSkQ7vCg8n8-fill-2" offset="100%" stop-color="#ff914d"/></linearGradient><linearGradient id="ewSkQ7vCg8n9-fill" x1="0" y1="0.5" x2="1" y2="0.5" spreadMethod="pad" gradientUnits="objectBoundingBox" gradientTransform="translate(0 0)"><stop id="ewSkQ7vCg8n9-fill-0" offset="0%" stop-color="#004aad"/><stop id="ewSkQ7vCg8n9-fill-1" offset="100%" stop-color="#cb6ce6"/></linearGradient></defs><g transform="matrix(1.78266-.90671 0.90671 1.78266-19.130669 135.931577)" filter="url(#ewSkQ7vCg8n2-filter)"><rect width="123.985" height="38.5914" rx="19.3" ry="19.3" transform="matrix(.589442 0 0 0.489371 57.5444 80.0414)" fill="url(#ewSkQ7vCg8n3-fill)"/><rect width="251.18" height="72.5445" rx="36.27" ry="36.27" transform="matrix(.175338 0 0 0.260392 57.5444 103.104)" fill="url(#ewSkQ7vCg8n4-fill)"/><ellipse rx="9.02747" ry="9.51394" transform="translate(66.5719 134.129)" fill="url(#ewSkQ7vCg8n5-fill)" stroke-width="0"/></g><g transform="matrix(1.78266-.90671 0.90671 1.78266-19.130669 135.931577)"><rect width="123.985" height="38.5914" rx="19.3" ry="19.3" transform="matrix(.589442 0 0 0.489371 57.5444 80.0414)" fill="url(#ewSkQ7vCg8n7-fill)"/><rect width="251.18" height="72.5445" rx="36.27" ry="36.27" transform="matrix(.175338 0 0 0.260392 57.5444 103.104)" fill="url(#ewSkQ7vCg8n8-fill)"/><ellipse rx="9.02747" ry="9.51394" transform="translate(66.5719 134.129)" fill="url(#ewSkQ7vCg8n9-fill)" stroke-width="0"/></g></svg>
