<svg 
          width="30.406991958618164" 
          height="37.98903274536133" fill="none" 
          xmlns="http://www.w3.org/2000/svg">
          <path d="M 0.3957191728397886 14.30920711087245 C 0.9022395369808165 14.94235769055451 1.282129390251907 15.702137806037712 1.535389572322421 16.46191853218962 C 1.7886497543929347 17.22169925834153 1.9152801125957155 18.1081104871867 1.9152801125957155 18.99452125803034 C 1.9152801125957155 19.88093202887398 1.7886497543929347 20.767341629269257 1.535389572322421 21.527122355421167 C 1.282129390251907 22.286903081573076 0.9022395369808165 23.046684825506166 0.3957191728397886 23.67983540518823 C -0.23743132050328536 24.566246176031868 -0.11080149663555228 25.832545706946096 0.7756091533335094 26.46569628662816 C 1.662019803302571 27.09884686631022 2.92832104443398 26.972217381398142 3.561471537777054 26.085806610554503 C 4.3212521603221745 25.072765642351957 4.827771862905524 24.0597240634807 5.334292227046552 22.79342290411658 C 5.8408125911875795 21.527121744752456 5.96744282216773 20.26082241739446 5.96744282216773 18.99452125803034 C 5.96744282216773 17.728220098666217 5.714182538319112 16.461919142858328 5.334292227046552 15.195617983494206 C 4.954401915773992 14.055946919710872 4.3212521603221745 12.916275245258827 3.561471537777054 11.903234277056281 C 2.92832104443398 11.016823506212642 1.662019803302571 10.890194021300564 0.7756091533335094 11.523344600982625 C -0.11080149663555228 12.156495180664686 -0.23743132050328536 13.42279634002881 0.3957191728397886 14.30920711087245 ZM 7.360371851604785 10.636924771886465 C 8.879933402029337 13.042896995033923 9.766344357332713 15.955390211173242 9.766344357332713 18.99451311578088 C 9.766344357332713 22.033636020388517 8.879933402029337 24.946130050752785 7.360371851604785 27.352102273900243 C 6.727221256483606 28.238513044743883 7.107112000313109 29.50481257565811 7.99352285383838 30.137963155340174 C 9.00656388745475 30.771113735022237 10.146234388715486 30.39122283761116 10.779384983836664 29.50481206676752 C 12.678836972756407 26.465689162159883 13.818507677573352 22.920046689454036 13.818507677573352 18.99451311578088 C 13.818507677573352 15.195609841244746 12.678836972756407 11.52333625517693 10.779384983836664 8.484213350569293 C 10.146234388715486 7.597802579725654 8.87993370736365 7.217912496539524 7.99352285383838 7.851063076221586 C 7.107112000313109 8.484213655903648 6.727221256483606 9.623883803683919 7.360371851604785 10.636924771886465 ZM 14.704907030172832 6.838026382700006 C 16.857618565049936 10.383669466074561 17.997288659198254 14.562464045134242 17.997288659198254 18.994518001130555 C 17.997288659198254 23.426571957126868 16.730988486736944 27.605365721961604 14.704907030172832 31.151008805336158 C 14.198386666031803 32.16404977353871 14.451645550431488 33.30371910709403 15.464686278713543 33.93686968677609 C 16.4777270069956 34.443390170877365 17.617397966257805 34.190131302831325 18.250548408711825 33.17709033462878 C 20.78315017852791 28.998296569794043 22.176082668420516 24.1863525306116 22.176082668420516 18.994518001130555 C 22.176082668420516 13.802683471649509 20.78315017852791 8.99073821112965 18.250548408711825 4.811944446294915 C 17.744028044570797 3.7989034780923694 16.4777270069956 3.545642981596437 15.464686278713543 4.05216346569771 C 14.451645550431488 4.685314045379771 14.198386666031803 5.82498541449746 14.704907030172832 6.838026382700006 ZM 22.049402311723973 3.039122904607637 C 24.70863477052168 7.724437051765527 26.35482619570302 13.16953279018933 26.35482619570302 18.994518001130555 C 26.35482619570302 24.81950321207178 24.835265052390884 30.264597932714402 22.049402311723973 34.94991207987229 C 21.54288179491579 35.96295304807484 21.796143783547656 37.10262238163016 22.809184817164024 37.73577296131222 C 23.82222585078039 38.242293445413495 24.96189635204113 37.989034577367455 25.59504694716231 36.97599360916491 C 28.634170048011416 31.65752878054684 30.406991958618164 25.579283785556512 30.406991958618164 18.994518001130555 C 30.406991958618164 12.409752216704598 28.634170048011416 6.331505695042497 25.59504694716231 1.0130408664244275 C 25.088526430354126 -1.0177811837763784e-7 23.82222585078039 -0.2532602166061069 22.809184817164024 0.253260267495166 C 21.796143783547656 0.759780751596439 21.54288179491579 2.0260819364050913 22.049402311723973 3.039122904607637 Z" fill="rgb(31.000000052154064,31.000000052154064,31.000000052154064)"/>
        </svg>