<svg 
          width="30.406991958618164" 
          height="37.98903274536133" fill="none" 
          xmlns="http://www.w3.org/2000/svg">
          <path d="M 2.8724944591522217 25.58148193359375 L 2.878450393676758 25.57354164123535 C 3.577605128288269 24.641335487365723 4.051176726818085 23.702348828315735 4.541580677032471 22.47633934020996 C 4.991870224475861 21.35061466693878 5.11366605758667 20.205292582511902 5.11366605758667 18.994522094726562 C 5.11366605758667 17.843968510627747 4.8840707540512085 16.668924570083618 4.520288944244385 15.45351791381836 C 4.1740361750125885 14.420136213302612 3.591037392616272 13.365616381168365 2.878450393676758 12.415499687194824 L 2.8724944591522217 12.407559394836426 L 2.866724967956543 12.399481773376465 C 2.5450280010700226 11.949105441570282 1.829085886478424 11.820070177316666 1.2718567848205566 12.218091011047363 C 0.8257907330989838 12.536710262298584 0.6949446797370911 13.24206268787384 1.0791826248168945 13.796917915344238 C 1.6519224047660828 14.51903772354126 2.0695839524269104 15.364622831344604 2.345353364944458 16.191930770874023 C 2.6324498653411865 17.05321955680847 2.769056797027588 18.03293216228485 2.769056797027588 18.994522094726562 C 2.769056797027588 19.956112027168274 2.6324498653411865 20.935820817947388 2.345353364944458 21.797109603881836 C 2.069584161043167 22.624417543411255 1.6519225239753723 23.47000551223755 1.079182505607605 24.19212532043457 C 0.6949446499347687 24.74698054790497 0.8257906138896942 25.452332705259323 1.2718567848205566 25.770950317382812 C 1.829085886478424 26.16897115111351 2.5450280010700226 26.039935052394867 2.866724967956543 25.58955955505371 L 2.8724944591522217 25.58148193359375 Z M 0.3957192003726959 23.67983627319336 C 0.9022395312786102 23.04668515920639 1.2821294963359833 22.286903500556946 1.5353896617889404 21.527122497558594 C 1.7886499166488647 20.76734149456024 1.9152801036834717 19.880932986736298 1.9152801036834717 18.994522094726562 C 1.9152801036834717 18.108111202716827 1.7886499166488647 17.22170078754425 1.5353896617889404 16.4619197845459 C 1.2821294963359833 15.702138781547546 0.9022395312786102 14.942358076572418 0.3957192003726959 14.30920696258545 C -0.23743131756782532 13.422796070575714 -0.1108015775680542 12.15649527311325 0.7756091952323914 11.523344993591309 C 1.6620197296142578 10.890194714069366 2.928321123123169 11.016823589801788 3.561471700668335 11.903234481811523 C 4.321252167224884 12.916275262832642 4.954401969909668 14.05594789981842 5.334292411804199 15.195618629455566 C 5.7141828536987305 16.46191918849945 5.967442989349365 17.728219866752625 5.967442989349365 18.994522094726562 C 5.967442989349365 20.260822653770447 5.8408127427101135 21.527122139930725 5.334292411804199 22.79342269897461 C 4.827772080898285 24.059724926948547 4.321252167224884 25.07276701927185 3.561471700668335 26.08580780029297 C 2.928321123123169 26.972218692302704 1.6620197296142578 27.098847448825836 0.7756091952323914 26.465696334838867 C -0.1108015775680542 25.832545220851898 -0.23743131756782532 24.566247165203094 0.3957192003726959 23.67983627319336 Z M 8.069249153137207 27.828567504882812 L 8.055119514465332 27.848350524902344 C 7.771091818809509 28.245988696813583 7.875842452049255 28.988636434078217 8.468201637268066 29.427526473999023 C 9.015008985996246 29.75458762049675 9.651975214481354 29.597728967666626 10.07052993774414 29.02804183959961 C 11.882238864898682 26.120179176330566 12.964731216430664 22.73834490776062 12.964731216430664 18.9945125579834 C 12.964731216430664 15.37428593635559 11.880746006965637 11.867268323898315 10.07070541381836 8.961268424987793 C 9.632042586803436 8.366814196109772 8.887938916683197 8.261403411626816 8.48976993560791 8.545809745788574 C 7.896902680397034 8.969286531209946 7.736014425754547 9.62541115283966 8.083436012268066 10.18292236328125 C 9.686805129051208 12.722388982772827 10.620121002197266 15.79177975654602 10.620121002197266 18.9945125579834 C 10.620121002197266 22.19804811477661 9.686338305473328 25.268175840377808 8.082231521606445 27.808013916015625 L 8.069249153137207 27.828567504882812 Z M 10.779385566711426 8.484213829040527 C 12.678837776184082 11.52333688735962 13.81850814819336 15.195609092712402 13.81850814819336 18.9945125579834 C 13.81850814819336 22.920045852661133 12.678837776184082 26.465691566467285 10.779385566711426 29.504812240600586 C 10.146235346794128 30.39122313261032 9.006563782691956 30.771115362644196 7.993523120880127 30.137964248657227 C 7.107112348079681 29.504813134670258 6.727221488952637 28.23850989341736 7.360372066497803 27.352102279663086 C 8.879933834075928 24.94612765312195 9.76634407043457 22.033634901046753 9.76634407043457 18.9945125579834 C 9.76634407043457 15.95538854598999 8.879933834075928 13.042896747589111 7.360372066497803 10.636924743652344 C 6.727221488952637 9.623883128166199 7.107112348079681 8.484213531017303 7.993523120880127 7.851063251495361 C 8.879933893680573 7.217912137508392 10.146235346794128 7.597802937030792 10.779385566711426 8.484213829040527 Z M 17.50242042541504 5.22479248046875 L 17.486906051635742 5.193765163421631 C 17.24855963885784 4.717070639133453 16.57631367444992 4.471407175064087 15.8831787109375 4.797998905181885 C 15.30809497833252 5.177220106124878 15.154354572296143 5.800168752670288 15.454787254333496 6.428076267242432 C 17.680325984954834 10.107961416244507 18.851064682006836 14.429370403289795 18.851064682006836 18.994518280029297 C 18.851064682006836 23.58010959625244 17.543890714645386 27.895236492156982 15.459160804748535 31.551881790161133 C 15.152868956327438 32.182886600494385 15.305338323116302 32.81004482507706 15.883258819580078 33.19108581542969 C 16.5188866853714 33.491026759147644 17.148308396339417 33.3256396651268 17.523786544799805 32.72898864746094 C 19.973727226257324 28.684345722198486 21.32230567932129 24.027324199676514 21.32230567932129 18.994518280029297 C 21.32230567932129 13.959394931793213 19.972484827041626 9.30039930343628 17.520401000976562 5.254458904266357 L 17.50242042541504 5.22479248046875 Z M 18.25054931640625 33.17708969116211 C 17.61739832162857 34.19013214111328 16.477728605270386 34.443390130996704 15.464686393737793 33.93687057495117 C 14.451645731925964 33.3037194609642 14.198387920856476 32.1640510559082 14.704907417297363 31.15100860595703 C 16.73098874092102 27.60536503791809 17.997289657592773 23.426570892333984 17.997289657592773 18.994518280029297 C 17.997289657592773 14.562463760375977 16.85761857032776 10.383670091629028 14.704907417297363 6.838026523590088 C 14.198387920856476 5.82498574256897 14.451645731925964 4.685314297676086 15.464686393737793 4.052163600921631 C 16.477728605270386 3.5456432104110718 17.744028210639954 3.798903703689575 18.25054931640625 4.811944484710693 C 20.78315019607544 8.990738868713379 22.176082611083984 13.802682876586914 22.176082611083984 18.994518280029297 C 22.176082611083984 24.186352252960205 20.78315019607544 28.998298168182373 18.25054931640625 33.17708969116211 Z M 24.842004776000977 1.4160574674606323 L 24.83140754699707 1.3948614597320557 C 24.588859736919403 0.9097646474838257 23.896977424621582 0.6639148592948914 23.191003799438477 1.0169014930725098 C 22.71003630757332 1.257385477423668 22.46426099538803 1.9395831227302551 22.80415916442871 2.6392769813537598 C 25.521320343017578 7.434457778930664 27.208602905273438 13.015686988830566 27.208602905273438 18.994518280029297 C 27.208602905273438 24.957976818084717 25.655449390411377 30.54360294342041 22.8007755279541 35.35675048828125 C 22.498334974050522 35.98572951555252 22.651650846004486 36.61013689637184 23.227739334106445 36.98998260498047 C 23.860356211662292 37.2885100543499 24.48683249950409 37.12610751390457 24.862924575805664 36.53635787963867 C 27.827212810516357 31.34287929534912 29.55321502685547 25.41530418395996 29.55321502685547 18.994518280029297 C 29.55321502685547 12.56712007522583 27.823654890060425 6.6339452266693115 24.853761672973633 1.4366328716278076 L 24.842004776000977 1.4160574674606323 Z M 25.595046997070312 36.97599411010742 C 24.961897611618042 37.989036560058594 23.822225689888 38.24229454994202 22.809185028076172 37.735774993896484 C 21.79614281654358 37.102623879909515 21.54288274049759 35.962955474853516 22.049402236938477 34.949913024902344 C 24.83526611328125 30.264598846435547 26.354825973510742 24.81950330734253 26.354825973510742 18.994518280029297 C 26.354825973510742 13.169532775878906 24.708636045455933 7.724437236785889 22.049402236938477 3.039123058319092 C 21.54288274049759 2.0260820388793945 21.79614281654358 0.759780764579773 22.809185028076172 0.2532602548599243 C 23.822225689888 -0.2532602548599243 25.088527500629425 0 25.595046997070312 1.0130409002304077 C 28.634170532226562 6.331505656242371 30.406991958618164 12.409751415252686 30.406991958618164 18.994518280029297 C 30.406991958618164 25.579284191131592 28.634170532226562 31.657532215118408 25.595046997070312 36.97599411010742 Z" fill="rgb(31.000000052154064,31.000000052154064,31.000000052154064)"/>
        </svg>