<svg width="100" height="79" viewBox="0 0 100 79" fill="none" xmlns="http://www.w3.org/2000/svg">
<path d="M43.9883 53.7102H37.3914L41.5176 26.5537H48.1142L43.9883 53.7102Z" fill="white"/>
<path d="M67.9025 27.2176C66.6013 26.6681 64.5375 26.0615 61.9855 26.0615C55.4708 26.0615 50.8832 29.7592 50.855 35.0458C50.8009 38.9463 54.1396 41.1127 56.6367 42.4132C59.189 43.7422 60.0566 44.6096 60.0566 45.7941C60.0306 47.6134 57.9942 48.452 56.0949 48.452C53.4611 48.452 52.0498 48.0197 49.9052 47.0075L49.0365 46.5736L48.1133 52.6697C49.6606 53.42 52.5112 54.0858 55.4708 54.115C62.3928 54.115 66.8993 50.4745 66.9527 44.8407C66.979 41.7493 65.216 39.3805 61.4152 37.4449C59.1078 36.2023 57.6948 35.3645 57.6948 34.0931C57.7219 32.9374 58.89 31.7536 61.4946 31.7536C63.6392 31.6956 65.2149 32.2443 66.4087 32.7934L67.0053 33.0817L67.9025 27.2176V27.2176V27.2176Z" fill="white"/>
<path fill-rule="evenodd" clip-rule="evenodd" d="M79.7114 26.5537L84.8141 26.5537L90.1362 53.7098H84.0281C84.0281 53.7098 83.4303 50.5896 83.2409 49.6362H74.7709C74.526 50.3581 73.3864 53.7098 73.3864 53.7098H66.4644L76.2633 28.8069C76.9423 27.0444 78.1378 26.5537 79.7114 26.5537ZM79.3049 36.4915C79.3049 36.4915 77.2144 42.5295 76.6711 44.0896H82.1545C81.8832 42.7319 80.6339 36.2315 80.6339 36.2315L80.1729 33.8915C79.9787 34.4941 79.698 35.3225 79.5086 35.8813C79.3802 36.26 79.2939 36.5149 79.3049 36.4915Z" fill="white"/>
<path fill-rule="evenodd" clip-rule="evenodd" d="M8.80744 26.5537L19.4214 26.5537C20.86 26.6109 22.0274 27.102 22.4073 28.8365L24.7137 41.3125C24.714 41.3137 24.7144 41.3149 24.7147 41.3162L25.4207 45.0719L31.8813 26.5537H38.8571L28.4878 53.6814H21.5116L15.6318 30.0849C13.603 28.8224 11.2876 27.807 8.69885 27.1024L8.80744 26.5537Z" fill="white"/>
</svg>
